<?xml version="1.0" ?><svg id="Layer_1" style="enable-background:new 0 0 100 100;" version="1.1" viewBox="0 0 100 100" xml:space="preserve" xmlns="http://www.w3.org/2000/svg" xmlns:xlink="http://www.w3.org/1999/xlink"><path d="M57.4,4h-15C21.2,4,3.9,21.3,3.9,42.5c0,14.1,7.6,27,20,33.8l0,15.2c0,2.5,2,4.5,4.5,4.5c1.2,0,2.4-0.5,3.2-1.3L45.3,81  h12.1c21.2,0,38.5-17.3,38.5-38.5S78.7,4,57.4,4z M48.3,20.7c0.2-0.1,0.2-0.2,0.9-0.2c0.2,0,0.4,0,0.6,0c0.6,0,1.5,0.1,2,0.1  c2.4,0.3,4,0.6,6.3,1.7c2.2,1,3.6,2,5.4,3.8c1.7,1.7,2.7,3,3.7,5c1.4,2.8,2.2,6.1,2.4,9.8c0,1.3,0,1.4-0.2,1.6  c-0.2,0.2-0.4,0.3-0.7,0.3c-0.3,0-0.5-0.2-0.7-0.4c-0.1-0.2-0.1-0.3-0.2-1.3c-0.1-1.6-0.2-2.6-0.4-3.8c-0.9-4.9-3.3-8.8-7.1-11.6  c-3.1-2.3-5.9-3.2-10.3-3.5c-1.4-0.1-1.5-0.1-1.7-0.3c-0.2-0.1-0.3-0.4-0.3-0.6C48.1,21.1,48.1,20.9,48.3,20.7z M55.9,29.6  c-1.5-0.9-3.9-1.6-5.9-1.7c-0.6-0.1-0.9-0.1-1.1-0.4c-0.3-0.3-0.3-0.7-0.1-1c0.1-0.2,0.4-0.5,2.3-0.2c4.4,0.6,7.8,2.6,10,5.8  c1.2,1.8,2,3.9,2.3,6.2c0.1,0.7,0.1,2.2,0,2.5c0,0.1-0.3,0.4-0.4,0.5c-0.2,0.1-0.6,0.1-0.8-0.1c-0.2-0.1-0.5-0.2-0.5-1.5  c0-2-0.5-4.1-1.4-5.7C59.2,32.2,57.7,30.7,55.9,29.6z M57.2,39.9c-0.2,0.2-0.8,0.2-1.1,0c-0.2-0.2-0.3-0.3-0.3-0.9  c-0.1-1.1-0.3-1.8-0.6-2.5c-0.7-1.5-2-2.3-4.2-2.6c-0.9-0.1-1-0.2-1.2-0.4c-0.2-0.2-0.2-0.4-0.2-0.7c0.1-0.3,0.2-0.5,0.4-0.6  c0.2-0.1,0.2-0.1,0.4-0.1c0.1,0,0.2,0,0.4,0c0.3,0,0.9,0.1,1.2,0.1c1.4,0.3,2.4,0.8,3.3,1.6c1.2,1.1,1.8,2.3,2.1,4.2c0,0,0,0,0,0  C57.6,39.5,57.5,39.7,57.2,39.9z M70.8,58.9c-0.3,0.7-0.9,1.6-1.3,2.2c-0.8,1.1-1.8,2.2-2.7,2.9c-0.2,0.2-0.4,0.3-0.5,0.4  c-0.2,0.1-0.3,0.2-0.4,0.3c-0.8,0.5-1.4,0.9-2.1,1.1c-0.5,0.2-1,0.2-1.6,0.3c-0.2,0-0.3,0-0.5,0c-0.9,0-1.5-0.2-2.7-0.7  c-1-0.4-2.1-0.9-3.2-1.4l-0.3-0.1c-1-0.5-2-1-3-1.5c-0.1-0.1-0.3-0.1-0.4-0.2c-0.9-0.5-1.9-1.1-2.8-1.6L49,60.5c0,0-0.1-0.1-0.1-0.1  C42.7,56.6,37.5,51.9,33,46c-0.4-0.6-0.8-1.1-1.2-1.7c-0.2-0.3-0.4-0.5-0.6-0.8l-0.6-0.8c-0.3-0.5-0.7-1-1-1.5c0,0-0.1-0.1-0.1-0.1  c-0.3-0.5-0.6-1-0.9-1.5c0,0-0.1-0.1-0.1-0.1c-1.5-2.5-2.7-5.1-3.7-7.7c-1-2.8-1.3-4.4-0.2-6.4c0.5-0.8,2.2-2.4,3.4-3.3  c2.1-1.5,3-2.1,3.9-2.2c0.6-0.1,1.7-0.1,2.4,0.2c0.3,0.1,0.8,0.4,1.1,0.5c1.7,1.1,5.7,6.3,7,8.7c0.9,1.7,1.1,2.9,0.8,4  c-0.3,1.1-0.9,1.7-2.7,3.2c-0.4,0.3-0.8,0.6-1.1,0.9c-0.1,0.1-0.1,0.1-0.2,0.2l-0.8-0.6l0,0l0.5,0.5l0.2,0.2  c-0.1,0.2-0.3,0.7-0.3,1.1c0,0.9,0.7,2.9,1.7,4.6c0.8,1.2,2.2,2.8,3.6,4.1c1.6,1.5,3.1,2.5,4.7,3.2c1.8,0.9,3,1.2,3.6,0.9  c0,0,0,0,0,0c0.1-0.1,0.2-0.1,0.3-0.2c0.1-0.1,0.5-0.5,1.2-1.4c0.9-1.1,1.4-1.7,2.1-2c0.2-0.1,0.4-0.2,0.7-0.3  c1.3-0.4,2.6-0.3,4,0.3c0.9,0.5,2.7,1.5,3.9,2.4c1.5,1,4.9,3.7,5.4,4.3c0.6,0.7,0.9,1.5,0.9,2.4C71.2,57.5,71,58.2,70.8,58.9z"/></svg>