<?xml version="1.0" standalone="no"?>
<!DOCTYPE svg PUBLIC "-//W3C//DTD SVG 20010904//EN"
 "http://www.w3.org/TR/2001/REC-SVG-20010904/DTD/svg10.dtd">
<svg version="1.0" xmlns="http://www.w3.org/2000/svg"
 width="500.000000pt" height="500.000000pt" viewBox="0 0 500.000000 500.000000"
 preserveAspectRatio="xMidYMid meet">
<metadata>
Created by potrace 1.14, written by Peter Selinger 2001-2017
</metadata>
<g transform="translate(0.000000,500.000000) scale(0.100000,-0.100000)"
fill="#000000" stroke="none">
<path d="M2370 3869 c-177 -14 -404 -92 -556 -191 -39 -25 -104 -77 -144 -114
l-72 -69 -127 -31 c-336 -84 -927 -340 -1154 -500 -99 -70 -101 -90 -12 -117
33 -10 150 -50 260 -89 315 -110 523 -158 690 -158 l80 0 1 -138 c1 -114 6
-152 26 -225 l25 -89 -24 -24 c-13 -13 -35 -48 -47 -77 -69 -155 -60 -373 18
-464 31 -35 32 -38 23 -87 -7 -36 -22 -64 -50 -96 -46 -53 -73 -102 -82 -153
-10 -50 23 -93 102 -134 182 -97 384 -123 952 -123 643 -1 1006 42 1206 142
61 31 133 87 140 108 8 25 -33 103 -84 162 -29 33 -41 55 -41 77 0 18 -8 48
-19 69 -14 28 -20 70 -25 172 -4 74 -12 175 -17 223 l-11 88 45 42 44 42 11
140 c7 77 18 165 27 195 8 30 15 71 15 91 l0 37 173 4 c141 4 194 10 292 32
142 33 315 93 515 180 80 35 163 70 184 77 21 8 44 22 50 32 16 26 -31 62
-184 141 -345 177 -929 382 -1176 411 -57 7 -62 10 -139 84 -100 96 -140 126
-240 185 -199 115 -430 164 -675 145z m340 -61 c107 -22 213 -62 304 -113 65
-36 201 -142 250 -194 l30 -31 -27 0 c-42 0 -32 -18 16 -25 211 -35 512 -117
769 -210 170 -62 453 -181 483 -203 l20 -14 -20 6 c-71 25 -205 49 -290 52
-108 4 -101 -4 20 -26 67 -12 190 -54 209 -71 5 -4 -22 3 -60 16 -110 38 -332
69 -677 95 -81 7 -160 16 -175 20 -27 8 -8 8 165 -5 39 -3 74 -1 77 3 3 5 -30
17 -72 27 -118 27 -238 72 -339 126 -50 27 -94 45 -97 41 -3 -4 4 -42 15 -83
26 -97 35 -247 20 -321 -18 -85 -66 -173 -136 -247 -119 -125 -228 -168 -395
-156 -80 5 -118 2 -231 -19 -226 -43 -230 -43 -277 -9 -52 38 -119 57 -178 50
-36 -4 -54 -13 -85 -43 -35 -35 -43 -38 -86 -35 -60 3 -294 47 -350 66 -64 21
-109 61 -139 122 -51 103 -43 370 15 558 11 33 17 62 15 64 -2 3 -17 -5 -32
-16 -92 -68 -259 -120 -628 -197 -311 -65 -462 -135 -227 -105 122 15 250 6
373 -26 62 -16 138 -27 218 -32 l122 -6 0 -46 c1 -25 10 -71 21 -101 36 -98
38 -90 -26 -90 -77 0 -307 36 -424 66 -110 29 -582 182 -594 194 -21 19 289
188 568 310 196 85 460 179 620 221 121 31 153 43 167 63 57 77 268 216 404
265 252 91 435 108 664 59z m777 -806 c6 -87 -11 -169 -53 -258 -26 -54 -99
-143 -109 -132 -3 3 13 34 36 68 84 126 118 248 105 374 -5 47 -4 57 5 43 6
-11 13 -53 16 -95z m1113 -149 c-109 -50 -299 -123 -386 -148 -194 -56 -329
-78 -495 -79 -145 -1 -159 1 -207 23 -29 14 -52 30 -52 38 0 17 18 16 70 -2
78 -27 211 -38 328 -25 188 20 327 57 667 179 125 46 155 51 75 14z m-1124
-223 c49 -31 59 -72 41 -162 -9 -40 -21 -120 -27 -178 -17 -156 -25 -178 -85
-211 -77 -43 -166 -62 -250 -54 -88 8 -441 60 -556 81 l-87 16 15 36 c8 21 37
81 64 134 44 88 52 98 81 103 18 3 87 14 153 25 152 25 335 78 493 143 104 42
123 53 119 68 -6 24 -2 24 39 -1z m-1971 -122 c48 -34 229 -82 363 -96 51 -5
95 -12 98 -15 3 -3 -4 -23 -15 -46 -12 -22 -21 -50 -21 -61 0 -19 -6 -17 -47
20 -58 51 -108 77 -161 86 -34 5 -43 2 -75 -26 -37 -32 -97 -139 -97 -172 0
-22 -7 -24 -81 -32 l-56 -6 -19 83 c-22 96 -25 305 -6 350 l12 28 33 -43 c18
-23 50 -55 72 -70z m733 -47 c54 -28 102 -85 102 -121 0 -45 -44 -85 -158
-144 l-104 -53 106 -6 c119 -7 183 -28 212 -72 15 -23 15 -33 5 -79 -10 -44
-62 -146 -74 -146 -2 0 10 27 26 59 16 33 32 80 34 104 5 39 2 46 -22 65 -39
31 -60 27 -99 -15 -34 -37 -35 -38 -68 -24 -93 38 -162 61 -171 58 -6 -2 44
-25 110 -51 67 -26 127 -54 134 -62 9 -11 2 -10 -32 4 -44 19 -45 19 -108 -3
l-64 -21 34 -39 c19 -21 52 -51 73 -67 21 -15 35 -28 29 -28 -29 0 -141 102
-191 176 -11 17 -12 15 -7 -13 3 -18 7 -48 10 -65 l5 -33 -13 35 c-11 28 -21
36 -52 42 -46 10 -52 5 -75 -64 -16 -45 -19 -48 -19 -23 0 17 15 66 34 109 19
44 33 82 30 84 -4 5 -45 -59 -45 -71 0 -4 -13 -1 -29 8 l-30 15 -36 -58 c-19
-31 -41 -74 -47 -95 -10 -33 -9 -41 8 -65 11 -15 45 -40 75 -55 46 -24 63 -28
114 -24 56 3 58 3 30 -9 -47 -20 -96 -16 -153 12 -73 36 -105 77 -97 123 9 49
57 138 105 195 22 27 39 50 37 52 -2 2 -25 -3 -51 -12 -34 -12 -50 -13 -60 -5
-28 24 -68 114 -73 168 l-6 56 -18 -22 c-20 -24 -49 -111 -49 -144 0 -10 13
-32 30 -48 20 -20 24 -29 14 -27 -10 2 -26 15 -36 29 -28 38 -26 108 6 172 37
76 60 97 105 97 62 0 201 -101 201 -146 0 -30 18 -12 24 24 9 57 63 159 112
210 42 44 44 45 93 39 27 -3 67 -15 89 -26z m541 -5 c23 -13 21 -14 -44 -25
-52 -9 -70 -9 -75 -1 -12 19 -96 -103 -164 -237 -42 -84 -52 -88 -144 -53 -29
11 -70 20 -92 20 -51 0 -51 12 0 35 49 22 108 78 116 110 3 13 1 40 -6 60 -7
20 -10 38 -8 39 7 7 325 64 358 65 19 0 46 -6 59 -13z m-1229 -343 c1 -10 7
-29 14 -42 12 -21 11 -30 -7 -70 -23 -52 -87 -267 -87 -293 0 -25 -32 -38 -94
-38 l-55 0 -7 36 c-10 54 2 222 20 280 33 104 78 142 174 143 33 1 42 -3 42
-16z m1275 -82 c83 -16 171 -33 198 -36 90 -13 167 -98 182 -200 18 -118 -103
-434 -207 -542 l-30 -31 29 -16 c40 -20 94 -82 87 -100 -6 -15 -84 -39 -179
-55 -115 -19 -318 -31 -535 -31 l-219 0 -12 43 c-9 33 -9 50 2 82 l14 40 118
12 c184 18 304 63 295 111 -5 25 -51 26 -153 2 -50 -12 -118 -24 -152 -27 -62
-6 -63 -6 -63 19 0 24 5 26 92 42 179 33 367 103 548 205 66 38 100 51 130 51
22 0 40 5 40 10 0 6 -7 10 -15 10 -17 0 -20 16 -5 25 6 3 10 10 10 15 0 5 -20
0 -45 -11 -96 -43 -327 -78 -423 -64 l-51 7 -20 88 c-21 86 -28 204 -22 341
l3 65 117 -13 c64 -7 184 -26 266 -42z m-1065 -7 c0 -3 -8 -18 -19 -32 -34
-49 -64 -148 -57 -187 12 -64 94 -129 186 -149 22 -5 27 -13 40 -85 l15 -79
-33 -22 c-29 -21 -40 -22 -120 -17 -48 3 -114 14 -147 24 -86 27 -98 53 -91
193 6 99 43 288 66 330 8 14 18 18 38 14 15 -3 45 -1 67 4 52 13 55 13 55 6z
m1625 -46 c20 -123 26 -181 30 -318 4 -170 1 -152 -30 155 -8 83 -18 160 -21
173 -4 13 -2 22 4 22 6 0 14 -15 17 -32z m-1358 -120 c-3 -8 -6 -5 -6 6 -1 11
2 17 5 13 3 -3 4 -12 1 -19z m158 -77 c22 -12 50 -21 63 -21 38 0 87 26 116
61 l28 34 -7 -145 c-7 -158 -16 -215 -37 -236 -21 -21 -126 -37 -193 -29 -102
11 -123 35 -134 154 -8 75 -7 77 22 110 28 33 29 38 24 104 l-4 69 41 -40 c22
-22 59 -49 81 -61z m1283 -318 c4 -38 13 -57 48 -96 23 -26 48 -64 55 -84 11
-33 10 -37 -12 -55 -13 -10 -33 -23 -44 -29 -11 -5 -8 0 8 11 15 12 27 28 27
36 0 24 -30 76 -66 117 -21 23 -34 48 -34 65 0 15 -3 45 -6 67 -5 32 -4 38 6
28 7 -6 15 -33 18 -60z m-1873 -22 c39 -16 95 -40 125 -54 30 -13 67 -27 83
-31 21 -5 27 -12 27 -32 0 -25 -1 -26 -47 -19 -79 11 -86 10 -90 -1 -2 -6 23
-23 56 -37 l59 -26 -19 -38 c-20 -38 -22 -103 -4 -146 7 -17 4 -18 -51 -12
-177 21 -348 73 -427 131 -45 33 -48 38 -42 67 8 39 48 111 87 155 15 18 28
39 28 47 0 19 56 35 105 30 22 -3 72 -18 110 -34z m473 -116 l103 0 -3 -25
c-3 -23 -8 -25 -57 -28 -51 -3 -249 13 -257 20 -2 2 -1 14 2 25 6 20 10 21 58
15 28 -4 97 -7 154 -7z m-135 -110 c43 -8 98 -15 122 -15 66 0 75 -6 63 -42
-6 -16 -8 -55 -5 -85 l6 -56 -67 7 c-37 3 -99 6 -138 6 -43 0 -77 5 -89 14
-26 19 -33 112 -11 154 19 37 17 37 119 17z"/>
<path d="M2164 3480 c-41 -8 -138 -50 -131 -56 2 -2 28 6 58 18 45 17 76 21
183 22 114 1 124 2 90 13 -45 13 -140 15 -200 3z"/>
<path d="M2123 3285 c-48 -21 -40 -25 15 -8 30 9 68 12 107 9 40 -4 53 -2 40
4 -31 13 -126 11 -162 -5z"/>
<path d="M2786 3169 c-146 -35 -280 -168 -317 -312 -16 -63 3 -171 41 -230 63
-100 220 -116 373 -37 181 93 249 336 139 495 -49 71 -148 106 -236 84z m-1
-283 c13 -19 14 -29 5 -45 -20 -38 -60 -18 -60 29 0 47 30 55 55 16z m-91 -86
c55 -66 39 -173 -29 -192 -89 -23 -143 66 -101 166 26 63 88 75 130 26z"/>
<path d="M1635 3091 c-40 -24 -61 -49 -80 -94 -22 -53 -19 -171 5 -251 77
-248 418 -296 438 -61 6 69 -12 164 -44 232 -31 65 -105 148 -155 173 -49 26
-124 26 -164 1z m150 -265 c0 -36 -26 -56 -49 -37 -31 26 -11 75 29 69 15 -2
20 -11 20 -32z m129 -50 c14 -18 20 -42 20 -80 1 -68 -20 -96 -75 -96 -51 0
-79 35 -79 99 0 108 78 153 134 77z"/>
<path d="M2293 2650 c-6 -16 -23 -35 -38 -42 -22 -10 -32 -9 -61 7 -41 22 -59
11 -25 -16 62 -50 139 -22 153 55 5 31 -17 28 -29 -4z"/>
<path d="M2106 2356 c-45 -45 -106 -140 -106 -166 0 -8 21 17 46 55 25 39 55
81 68 95 63 71 57 82 -8 16z"/>
<path d="M1765 2187 c39 -13 81 -29 93 -36 13 -7 26 -10 29 -7 10 10 -100 55
-147 61 -41 5 -38 3 25 -18z"/>
</g>
</svg>
