<?xml version="1.0" encoding="iso-8859-1"?>
<!-- Generator: Adobe Illustrator 19.1.0, SVG Export Plug-In . SVG Version: 6.00 Build 0)  -->
<svg version="1.1" id="Capa_1" xmlns="http://www.w3.org/2000/svg" xmlns:xlink="http://www.w3.org/1999/xlink" x="0px" y="0px"
	 viewBox="0 0 62.044 62.044" style="enable-background:new 0 0 62.044 62.044;" xml:space="preserve">
<g>
	<g id="group-11svg">
		<path id="path-1_1_" d="M43.574,62.044H18.462c-2.339,0-4.268-1.12-5.159-2.997L3.937,39.612c-0.874-1.837-0.711-4.086,0.42-5.878
			c1.072-1.698,2.842-2.712,4.736-2.712h9.054c1.964,0,3.502-0.856,4.219-2.348l7.673-13.994c0.263-0.482,0.769-0.67,1.318-0.67
			h0.001c0.551,0,1.056,0.19,1.318,0.675l7.638,14.084c0.97,2.017,3.079,2.253,4.251,2.253h8.378c1.938,0,3.729,1.004,4.791,2.687
			c1.093,1.731,1.231,3.847,0.369,5.661l-9.368,19.878C48.128,60.525,46.742,62.044,43.574,62.044z M9.093,34.024
			c-0.871,0-1.673,0.479-2.2,1.314c-0.586,0.928-0.682,2.069-0.25,2.977l9.366,19.435c0.534,1.125,1.765,1.291,2.453,1.291h25.112
			c1.938,0,2.31-0.783,2.45-1.078l9.368-19.878c0.419-0.883,0.345-1.917-0.195-2.772c-0.516-0.82-1.338-1.289-2.254-1.289h-8.378
			c-3.195,0-5.718-1.439-6.922-3.947l-6.291-11.643l-6.317,11.608c-1.183,2.468-3.771,3.982-6.888,3.982H9.093z"/>
		<path id="path-2_1_" d="M32.097,61.543c-0.828,0-1.5-0.672-1.5-1.501V16.011c0-0.829,0.672-1.501,1.5-1.501s1.5,0.672,1.5,1.501
			v44.031C33.597,60.871,32.925,61.543,32.097,61.543z"/>
		<path id="path-3_1_" d="M46.097,33.523c-0.828,0-1.5-0.671-1.5-1.501V16.078c0-2.206-2.168-4.07-4.23-4.07H21.669
			c-2.229,0-4.072,2.054-4.072,4.07v15.944c0,0.83-0.672,1.501-1.5,1.501c-0.828,0-1.5-0.671-1.5-1.501V16.078
			c0-3.701,3.147-7.072,7.072-7.072h18.698c3.688,0,7.23,3.239,7.23,7.072v15.944C47.597,32.852,46.925,33.523,46.097,33.523z"/>
		<path id="path-4_1_" d="M38.67,12.008h-16c-0.828,0-1.073-0.672-1.073-1.501V3.502C21.597,1.571,22.74,0,24.67,0h12
			c1.93,0,3.927,1.571,3.927,3.502v7.005C40.597,11.336,39.498,12.008,38.67,12.008z M24.597,9.006h13V3.502
			c0-0.271-0.656-0.5-0.927-0.5h-12c-0.271,0-0.073,0.229-0.073,0.5V9.006z"/>
	</g>
</g>
<g>
</g>
<g>
</g>
<g>
</g>
<g>
</g>
<g>
</g>
<g>
</g>
<g>
</g>
<g>
</g>
<g>
</g>
<g>
</g>
<g>
</g>
<g>
</g>
<g>
</g>
<g>
</g>
<g>
</g>
</svg>
