<?xml version="1.0" ?><svg viewBox="0 0 64 64" xmlns="http://www.w3.org/2000/svg"><title/><g id="Advertisement"><path d="M34.897,15.9875l-2.0191-3.8962a.9994.9994,0,0,0-1.4541-.3638L6.0957,29.147a.9986.9986,0,0,0-.3213,1.2837l.9973,1.9245L2.4336,35.3389a.9986.9986,0,0,0-.3213,1.2837L8.4277,48.81a1,1,0,0,0,1.2344.478l4.9394-1.824.9971,1.9241a1,1,0,0,0,1.2344.478L21.1818,48.26l6.8719,11.9027a1,1,0,0,0,1.3262.3877l6.77-3.5088a.9994.9994,0,0,0,.4062-1.3877L30.3376,44.88,45.67,39.2178a.9993.9993,0,0,0,.541-1.398L44.1926,33.925A10.1509,10.1509,0,0,0,34.897,15.9875ZM13.6738,45.6748,9.7969,47.106l-5.503-10.62,3.4052-2.3416,1.8085,3.49Zm14.7608-.0918,5.8662,10.165-4.9922,2.5874-6.2232-10.778,2.84-1.0488Zm-5.493-.1047-1.6613.613-.0016.001-4.3109,1.5918-9.0117-17.39L31.624,14.0171,33.5585,17.75v0l.9353,1.8049,9.42,18.179ZM46.4268,27.8818a8.0893,8.0893,0,0,1-3.1592,4.2574L35.8223,17.7725A8.1529,8.1529,0,0,1,46.4268,27.8818Z"/><path d="M61.8877,13.3774A1,1,0,0,0,60.54,12.95L50.3838,18.2124a1,1,0,1,0,.92,1.7754L61.46,14.7251A1,1,0,0,0,61.8877,13.3774Z"/><path d="M60.0381,31.1519,52.043,28.6143a1,1,0,1,0-.6055,1.9062l7.9951,2.5376a1.01,1.01,0,0,0,.3028.0474,1,1,0,0,0,.3027-1.9536Z"/><path d="M42.5059,13.2856a.9982.9982,0,0,0,1.2558-.65L46.3,4.64a1,1,0,1,0-1.9062-.6054L41.8555,12.03A1,1,0,0,0,42.5059,13.2856Z"/></g></svg>