<?xml version="1.0" encoding="iso-8859-1"?>
<!-- Generator: Adobe Illustrator 16.0.0, SVG Export Plug-In . SVG Version: 6.00 Build 0)  -->
<!DOCTYPE svg PUBLIC "-//W3C//DTD SVG 1.1//EN" "http://www.w3.org/Graphics/SVG/1.1/DTD/svg11.dtd">
<svg version="1.1" id="Capa_1" xmlns="http://www.w3.org/2000/svg" xmlns:xlink="http://www.w3.org/1999/xlink" x="0px" y="0px"
	 width="65.998px" height="65.998px" viewBox="0 0 65.998 65.998" style="enable-background:new 0 0 65.998 65.998;"
	 xml:space="preserve">
<g>
	<g>
		<path d="M27.488,63.51C25.884,61.906,25,59.77,25,57.499v-16.5L8.499,40.998c-2.271,0.001-4.405-0.883-6.011-2.489
			C0.883,36.904,0,34.77,0,32.499c-0.001-2.27,0.883-4.405,2.488-6.011C4.094,24.883,6.228,23.999,8.5,24l16.499-0.001L25,8.499
			c-0.001-2.27,0.883-4.405,2.488-6.011C29.093,0.882,31.229-0.001,33.499,0c2.271,0,4.403,0.883,6.011,2.489
			c1.605,1.604,2.489,3.74,2.488,6.011L41.999,24h15.5c2.271,0,4.403,0.883,6.011,2.489c1.606,1.604,2.49,3.741,2.488,6.01
			c0.001,2.271-0.883,4.405-2.488,6.011c-1.604,1.606-3.74,2.489-6.011,2.488L41.999,41l-0.001,16.499
			c0.001,2.271-0.883,4.403-2.488,6.011c-1.605,1.605-3.74,2.489-6.011,2.488C31.23,66,29.095,65.116,27.488,63.51z M28.414,37.585
			c0.361,0.362,0.585,0.861,0.585,1.414L29,57.499c0,1.204,0.468,2.333,1.317,3.183c0.851,0.851,1.98,1.317,3.182,1.317
			c1.203,0,2.332-0.469,3.183-1.317c0.851-0.851,1.318-1.979,1.316-3.182L38,39c0-1.104,0.895-2,2-2l17.499-0.001
			c1.204,0,2.332-0.468,3.183-1.317c0.85-0.851,1.317-1.979,1.317-3.183c0-1.202-0.47-2.332-1.317-3.182
			c-0.85-0.85-1.979-1.318-3.181-1.316l-17.502-0.002c-1.104,0-2-0.895-2-1.999L37.998,8.499c0.001-1.202-0.469-2.332-1.316-3.182
			C35.831,4.467,34.702,3.999,33.5,4c-1.203,0-2.333,0.467-3.184,1.317c-0.85,0.85-1.316,1.979-1.317,3.182v17.5
			c0,1.104-0.896,2-2,2L8.499,28c-1.202,0-2.332,0.467-3.183,1.317C4.468,30.166,4,31.297,3.999,32.499
			c0,1.203,0.469,2.332,1.317,3.183c0.851,0.851,1.98,1.317,3.183,1.316L26.999,37C27.552,37,28.052,37.225,28.414,37.585z"/>
	</g>
</g>
<g>
</g>
<g>
</g>
<g>
</g>
<g>
</g>
<g>
</g>
<g>
</g>
<g>
</g>
<g>
</g>
<g>
</g>
<g>
</g>
<g>
</g>
<g>
</g>
<g>
</g>
<g>
</g>
<g>
</g>
</svg>
