<?xml version="1.0" ?><svg style="enable-background:new 0 0 61 55.13;" version="1.1" viewBox="0 0 61 55.13" xml:space="preserve" xmlns="http://www.w3.org/2000/svg" xmlns:xlink="http://www.w3.org/1999/xlink"><style type="text/css">
	.st0{fill:#FFFFFF;stroke:#000000;stroke-miterlimit:10;}
	.st1{fill:#FFFFFF;}
	.st2{fill:none;stroke:#000000;stroke-miterlimit:10;}
	.st3{fill:none;stroke:#000000;stroke-linecap:round;stroke-miterlimit:10;}
	.st4{fill:none;stroke:#000000;stroke-linejoin:round;stroke-miterlimit:10;}
	.st5{fill:none;stroke:#000000;stroke-linecap:round;stroke-linejoin:round;stroke-miterlimit:10;}
</style><g id="Layer_2"/><g id="Layer_1"/><g id="Layer_3"><g><path d="M57.47,4.62H45.44V3.65c0-2.01-1.64-3.65-3.65-3.65h-6.5c-2.01,0-3.65,1.64-3.65,3.65v0.97H19.62    c-1.95,0-3.53,1.58-3.53,3.53V45.2c0,1.95,1.58,3.53,3.53,3.53h1.43v3.06c0,1.84,1.5,3.34,3.34,3.34h1.87    c1.84,0,3.34-1.5,3.34-3.34v-3.06h17.89v3.06c0,1.84,1.5,3.34,3.34,3.34h1.87c1.84,0,3.34-1.5,3.34-3.34v-3.06h1.43    c1.95,0,3.53-1.58,3.53-3.53V8.15C61,6.21,59.42,4.62,57.47,4.62z M32.64,3.65c0-1.46,1.19-2.65,2.65-2.65h6.5    c1.46,0,2.65,1.19,2.65,2.65v0.97h-11.8V3.65z M28.6,51.79c0,1.29-1.05,2.34-2.34,2.34h-1.87c-1.29,0-2.34-1.05-2.34-2.34v-3.06    h6.56V51.79z M55.04,51.79c0,1.29-1.05,2.34-2.34,2.34h-1.87c-1.29,0-2.34-1.05-2.34-2.34v-3.06h6.56V51.79z M60,45.2    c0,1.4-1.14,2.53-2.53,2.53h-1.43h-8.56H29.6h-8.56h-1.43c-1.4,0-2.53-1.13-2.53-2.53V8.15c0-1.4,1.14-2.53,2.53-2.53h12.03h13.8    h12.02c1.4,0,2.53,1.13,2.53,2.53V45.2z"/><path d="M20.62,14.33h35.31c1.18,0,2.13-0.96,2.13-2.13V9.6c0-1.18-0.96-2.13-2.13-2.13H20.62c-1.18,0-2.13,0.96-2.13,2.13v2.6    C18.49,13.38,19.45,14.33,20.62,14.33z M19.49,9.6c0-0.63,0.51-1.13,1.13-1.13h35.31c0.63,0,1.13,0.51,1.13,1.13v2.6    c0,0.63-0.51,1.13-1.13,1.13H20.62c-0.63,0-1.13-0.51-1.13-1.13V9.6z"/><path d="M58.51,28.29v-9c0-1.62-1.32-2.93-2.93-2.93H21.42c-1.62,0-2.93,1.32-2.93,2.93v9c0,1.62,1.32,2.93,2.93,2.93h34.16    C57.2,31.22,58.51,29.91,58.51,28.29z M19.49,28.29v-9c0-1.07,0.87-1.93,1.93-1.93h34.16c1.07,0,1.93,0.87,1.93,1.93v9    c0,1.07-0.87,1.93-1.93,1.93H21.42C20.36,30.22,19.49,29.36,19.49,28.29z"/><path d="M22.37,36.36c-2.11,0-3.83,1.72-3.83,3.83s1.72,3.83,3.83,3.83s3.83-1.72,3.83-3.83S24.48,36.36,22.37,36.36z     M22.37,43.02c-1.56,0-2.83-1.27-2.83-2.83s1.27-2.83,2.83-2.83c1.56,0,2.83,1.27,2.83,2.83S23.93,43.02,22.37,43.02z"/><path d="M54.72,36.36c-2.11,0-3.83,1.72-3.83,3.83s1.72,3.83,3.83,3.83s3.83-1.72,3.83-3.83S56.84,36.36,54.72,36.36z     M54.72,43.02c-1.56,0-2.83-1.27-2.83-2.83s1.27-2.83,2.83-2.83c1.56,0,2.83,1.27,2.83,2.83S56.28,43.02,54.72,43.02z"/><path d="M12.63,17.07c0-3.48-2.83-6.32-6.32-6.32S0,13.59,0,17.07c0,2.99,2.09,5.49,4.88,6.14v27.94    c-1.51,0.46-2.74,1.63-3.24,3.19c-0.08,0.26,0.06,0.54,0.32,0.63c0.26,0.08,0.54-0.06,0.63-0.32c0.52-1.63,2.02-2.72,3.72-2.72    s3.2,1.09,3.72,2.72C10.11,54.86,10.3,55,10.51,55c0.05,0,0.1-0.01,0.15-0.02c0.26-0.08,0.41-0.37,0.32-0.63    c-0.5-1.57-1.73-2.73-3.24-3.19V23.21C10.54,22.56,12.63,20.06,12.63,17.07z M6.75,50.97c-0.15-0.01-0.29-0.03-0.44-0.03    s-0.29,0.02-0.44,0.03v-27.6h0.05c0.13,0.01,0.26,0.02,0.39,0.02s0.26-0.01,0.39-0.02h0.05V50.97z M6.51,22.37H6.12    C3.28,22.26,1,19.93,1,17.07c0-2.93,2.38-5.32,5.32-5.32s5.32,2.38,5.32,5.32C11.63,19.93,9.35,22.26,6.51,22.37z"/></g></g></svg>