<?xml version="1.0" ?><!DOCTYPE svg  PUBLIC '-//W3C//DTD SVG 1.1//EN'  'http://www.w3.org/Graphics/SVG/1.1/DTD/svg11.dtd'><svg xmlns="http://www.w3.org/2000/svg" xmlns:xlink="http://www.w3.org/1999/xlink" xmlns:serif="http://www.serif.com/" width="100%" height="100%" viewBox="0 0 64 64" version="1.1" xml:space="preserve" style="fill-rule:evenodd;clip-rule:evenodd;stroke-linejoin:round;stroke-miterlimit:2;"><g><path d="M5.548,18.562C6.994,14.172 11.129,11 16,11C16.415,11 16.825,11.023 17.228,11.068C17.913,11.144 18.589,10.862 19.017,10.322C21.583,7.081 25.55,5 30,5C34.78,5 39.004,7.402 41.53,11.062C42.061,11.83 43.053,12.13 43.92,11.783C45.181,11.277 46.559,11 48,11C52.966,11 57.167,14.297 58.533,18.82C58.852,19.876 59.969,20.475 61.026,20.156C62.082,19.837 62.681,18.72 62.362,17.664C60.5,11.496 54.771,7 48,7C46.579,7 45.204,7.198 43.9,7.568C40.599,3.558 35.596,1 30,1C24.669,1 19.875,3.322 16.578,7.011C16.386,7.004 16.194,7 16,7C9.359,7 3.72,11.326 1.749,17.311C1.404,18.359 1.975,19.491 3.023,19.836C4.072,20.181 5.203,19.61 5.548,18.562Z"/><g transform="matrix(1,0,0,1,0,10)"><path d="M16,37L48,37C56.279,37 63,30.279 63,22C63,13.721 56.279,7 48,7C46.579,7 45.204,7.198 43.9,7.568C40.599,3.558 35.596,1 30,1C24.669,1 19.875,3.322 16.578,7.011C16.386,7.004 16.194,7 16,7C7.721,7 1,13.721 1,22C1,30.279 7.721,37 16,37ZM16,33C9.929,33 5,28.071 5,22C5,15.929 9.929,11 16,11C16.415,11 16.825,11.023 17.228,11.068C17.913,11.144 18.589,10.862 19.017,10.322C21.583,7.081 25.55,5 30,5C34.78,5 39.004,7.402 41.53,11.062C42.061,11.83 43.053,12.13 43.92,11.783C45.181,11.277 46.559,11 48,11C54.071,11 59,15.929 59,22C59,28.071 54.071,33 48,33L16,33Z"/></g><g transform="matrix(1,0,0,1,1,1)"><path d="M14,50L14,52C14,53.104 14.896,54 16,54C17.104,54 18,53.104 18,52L18,50C18,48.896 17.104,48 16,48C14.896,48 14,48.896 14,50Z"/></g><g transform="matrix(1,0,0,1,11,1)"><path d="M14,50L14,52C14,53.104 14.896,54 16,54C17.104,54 18,53.104 18,52L18,50C18,48.896 17.104,48 16,48C14.896,48 14,48.896 14,50Z"/></g><g transform="matrix(1,0,0,1,21,1)"><path d="M14,50L14,52C14,53.104 14.896,54 16,54C17.104,54 18,53.104 18,52L18,50C18,48.896 17.104,48 16,48C14.896,48 14,48.896 14,50Z"/></g><g transform="matrix(1,0,0,1,31,1)"><path d="M14,50L14,52C14,53.104 14.896,54 16,54C17.104,54 18,53.104 18,52L18,50C18,48.896 17.104,48 16,48C14.896,48 14,48.896 14,50Z"/></g><g transform="matrix(1,0,0,1,1,1)"><path d="M14,58L14,60C14,61.104 14.896,62 16,62C17.104,62 18,61.104 18,60L18,58C18,56.896 17.104,56 16,56C14.896,56 14,56.896 14,58Z"/></g><g transform="matrix(1,0,0,1,11,1)"><path d="M14,58L14,60C14,61.104 14.896,62 16,62C17.104,62 18,61.104 18,60L18,58C18,56.896 17.104,56 16,56C14.896,56 14,56.896 14,58Z"/></g><g transform="matrix(1,0,0,1,21,1)"><path d="M14,58L14,60C14,61.104 14.896,62 16,62C17.104,62 18,61.104 18,60L18,58C18,56.896 17.104,56 16,56C14.896,56 14,56.896 14,58Z"/></g><g transform="matrix(1,0,0,1,31,1)"><path d="M14,58L14,60C14,61.104 14.896,62 16,62C17.104,62 18,61.104 18,60L18,58C18,56.896 17.104,56 16,56C14.896,56 14,56.896 14,58Z"/></g></g></svg>